<svg width="48" height="40" viewBox="0 0 48 40" fill="none" xmlns="http://www.w3.org/2000/svg">
<mask id="mask0_756_14" style="mask-type:luminance" maskUnits="userSpaceOnUse" x="0" y="0" width="48" height="40">
<path d="M47.4295 0H0V40H47.4295V0Z" fill="white"/>
</mask>
<g mask="url(#mask0_756_14)">
<path d="M47.4295 24.2724L40.0728 23.8198L40.3248 19.2861L31.5094 24.1382L36.3566 9.25751L29.9961 10.8395L23.7141 0L17.4334 10.8395L11.0729 9.25751L15.9215 24.1382L7.10473 19.2861L7.3567 23.8198L0 24.2724L5.38969 31.2431L1.65871 34.5102L12.2536 40V34.0344H14.9338V28.4833H15.5836V27.3569H19.6442V28.4833H20.3752V36.2871H22.0807L22.4056 27.196H21.5123V25.9893H21.1874V24.3802H21.7558V23.4953H22.4056V22.5299H22.7305V17.3005L22.4868 17.1396V16.7373L22.8117 16.5765L23.1365 7.88773L23.4614 16.5765L23.7863 16.7373V17.1396L23.5426 17.3005V22.5299H23.9487V23.4953H24.5984V24.3802H25.0857V25.9893H24.6796V27.196H23.8302L24.4359 40H25.0857V35.2412H26.7912V34.2758H29.1464V35.2412H30.9332V40H32.395V34.9193H33.0447V33.6321H35.1563L38.1613 32.8276V40L45.7723 34.5102L42.0399 31.2431L47.4295 24.2724Z" fill="white"/>
</g>
</svg>
