<svg width="26" height="28" viewBox="0 0 26 28" fill="none" xmlns="http://www.w3.org/2000/svg">
<path d="M9.71429 4.85719H15.4286C15.4286 4.09943 15.1276 3.37271 14.5917 2.83689C14.0559 2.30107 13.3292 2.00005 12.5714 2.00005C11.8137 2.00005 11.0869 2.30107 10.5511 2.83689C10.0153 3.37271 9.71429 4.09943 9.71429 4.85719ZM8 4.85719C8 3.64478 8.48163 2.48202 9.33894 1.62471C10.1962 0.767398 11.359 0.285767 12.5714 0.285767C13.7838 0.285767 14.9466 0.767398 15.8039 1.62471C16.6612 2.48202 17.1429 3.64478 17.1429 4.85719H24.2857C24.513 4.85719 24.7311 4.9475 24.8918 5.10825C25.0526 5.26899 25.1429 5.48701 25.1429 5.71434C25.1429 5.94167 25.0526 6.15968 24.8918 6.32043C24.7311 6.48117 24.513 6.57148 24.2857 6.57148H22.7886L21.3977 23.2606C21.2965 24.4747 20.7428 25.6064 19.8463 26.4314C18.9498 27.2563 17.776 27.7142 16.5577 27.7143H8.58514C7.36685 27.7142 6.19307 27.2563 5.29658 26.4314C4.40008 25.6064 3.84633 24.4747 3.74514 23.2606L2.35429 6.57148H0.857143C0.629814 6.57148 0.411797 6.48117 0.251051 6.32043C0.0903058 6.15968 0 5.94167 0 5.71434C0 5.48701 0.0903058 5.26899 0.251051 5.10825C0.411797 4.9475 0.629814 4.85719 0.857143 4.85719H8ZM5.45371 23.1178C5.51907 23.9034 5.87728 24.6357 6.45731 25.1696C7.03734 25.7035 7.79682 25.9999 8.58514 26.0001H16.5577C17.346 25.9999 18.1055 25.7035 18.6855 25.1696C19.2656 24.6357 19.6238 23.9034 19.6891 23.1178L21.0697 6.57148H4.07429L5.45371 23.1178ZM10 10.5715C10.2273 10.5715 10.4453 10.6618 10.6061 10.8225C10.7668 10.9833 10.8571 11.2013 10.8571 11.4286V21.1429C10.8571 21.3702 10.7668 21.5883 10.6061 21.749C10.4453 21.9097 10.2273 22.0001 10 22.0001C9.77267 22.0001 9.55466 21.9097 9.39391 21.749C9.23316 21.5883 9.14286 21.3702 9.14286 21.1429V11.4286C9.14286 11.2013 9.23316 10.9833 9.39391 10.8225C9.55466 10.6618 9.77267 10.5715 10 10.5715ZM16 11.4286C16 11.2013 15.9097 10.9833 15.749 10.8225C15.5882 10.6618 15.3702 10.5715 15.1429 10.5715C14.9155 10.5715 14.6975 10.6618 14.5368 10.8225C14.376 10.9833 14.2857 11.2013 14.2857 11.4286V21.1429C14.2857 21.3702 14.376 21.5883 14.5368 21.749C14.6975 21.9097 14.9155 22.0001 15.1429 22.0001C15.3702 22.0001 15.5882 21.9097 15.749 21.749C15.9097 21.5883 16 21.3702 16 21.1429V11.4286Z" fill="#BE2908"/>
</svg>
