<svg width="24" height="24" viewBox="0 0 24 24" fill="none" xmlns="http://www.w3.org/2000/svg">
<g clip-path="url(#clip0_839_55)">
<path d="M22.3931 12C22.3931 17.7399 17.7401 22.3929 12.0003 22.3929C6.26046 22.3929 1.60742 17.7399 1.60742 12C1.60742 6.26022 6.26046 1.60718 12.0003 1.60718C17.7401 1.60718 22.3931 6.26022 22.3931 12Z" stroke="white" stroke-width="1.5" stroke-linecap="round" stroke-linejoin="round"/>
<path d="M9.42859 9.42861C9.42859 8.92003 9.5794 8.42287 9.86195 8C10.1445 7.57713 10.5461 7.24754 11.016 7.05292C11.4858 6.85829 12.0029 6.80737 12.5017 6.90659C13.0005 7.00581 13.4587 7.25071 13.8183 7.61033C14.1779 7.96995 14.4228 8.42814 14.522 8.92695C14.6213 9.42576 14.5703 9.94278 14.3757 10.4127C14.1811 10.8825 13.8515 11.2841 13.4286 11.5667C13.0058 11.8492 12.5086 12 12 12V13.7143" stroke="white" stroke-width="1.5" stroke-linecap="round" stroke-linejoin="round"/>
<path d="M11.9996 16.2858C11.7453 16.2858 11.4967 16.3612 11.2853 16.5024C11.0738 16.6437 10.909 16.8445 10.8117 17.0795C10.7144 17.3144 10.689 17.5729 10.7386 17.8223C10.7882 18.0717 10.9106 18.3008 11.0904 18.4806C11.2703 18.6604 11.4993 18.7829 11.7488 18.8325C11.9982 18.8821 12.2567 18.8566 12.4916 18.7593C12.7265 18.662 12.9273 18.4972 13.0686 18.2858C13.2099 18.0744 13.2853 17.8258 13.2853 17.5715C13.2809 17.2319 13.144 16.9074 12.9038 16.6673C12.6636 16.4271 12.3392 16.2902 11.9996 16.2858Z" fill="white"/>
</g>
<defs>
<clipPath id="clip0_839_55">
<rect width="24" height="24" fill="white"/>
</clipPath>
</defs>
</svg>
