<svg width="24" height="24" viewBox="0 0 24 24" fill="none" xmlns="http://www.w3.org/2000/svg">
<path d="M7.78125 7.1875C8.05475 7.1875 8.31706 7.07885 8.51045 6.88545C8.70385 6.69206 8.8125 6.42975 8.8125 6.15625C8.8125 5.88275 8.70385 5.62044 8.51045 5.42705C8.31706 5.23365 8.05475 5.125 7.78125 5.125C7.50775 5.125 7.24544 5.23365 7.05205 5.42705C6.85865 5.62044 6.75 5.88275 6.75 6.15625C6.75 6.42975 6.85865 6.69206 7.05205 6.88545C7.24544 7.07885 7.50775 7.1875 7.78125 7.1875ZM8.8125 10.2812C8.8125 10.5548 8.70385 10.8171 8.51045 11.0105C8.31706 11.2038 8.05475 11.3125 7.78125 11.3125C7.50775 11.3125 7.24544 11.2038 7.05205 11.0105C6.85865 10.8171 6.75 10.5548 6.75 10.2812C6.75 10.0077 6.85865 9.74544 7.05205 9.55205C7.24544 9.35865 7.50775 9.25 7.78125 9.25C8.05475 9.25 8.31706 9.35865 8.51045 9.55205C8.70385 9.74544 8.8125 10.0077 8.8125 10.2812ZM7.78125 15.4375C7.91668 15.4375 8.05078 15.4108 8.17589 15.359C8.30101 15.3072 8.41469 15.2312 8.51045 15.1355C8.60621 15.0397 8.68218 14.926 8.734 14.8009C8.78583 14.6758 8.8125 14.5417 8.8125 14.4062C8.8125 14.2708 8.78583 14.1367 8.734 14.0116C8.68218 13.8865 8.60621 13.7728 8.51045 13.677C8.41469 13.5813 8.30101 13.5053 8.17589 13.4535C8.05078 13.4017 7.91668 13.375 7.78125 13.375C7.50775 13.375 7.24544 13.4837 7.05205 13.677C6.85865 13.8704 6.75 14.1327 6.75 14.4062C6.75 14.6798 6.85865 14.9421 7.05205 15.1355C7.24544 15.3288 7.50775 15.4375 7.78125 15.4375ZM12.9375 6.15625C12.9375 6.42975 12.8288 6.69206 12.6355 6.88545C12.4421 7.07885 12.1798 7.1875 11.9062 7.1875C11.6327 7.1875 11.3704 7.07885 11.177 6.88545C10.9836 6.69206 10.875 6.42975 10.875 6.15625C10.875 5.88275 10.9836 5.62044 11.177 5.42705C11.3704 5.23365 11.6327 5.125 11.9062 5.125C12.1798 5.125 12.4421 5.23365 12.6355 5.42705C12.8288 5.62044 12.9375 5.88275 12.9375 6.15625ZM11.9062 11.3125C12.1798 11.3125 12.4421 11.2038 12.6355 11.0105C12.8288 10.8171 12.9375 10.5548 12.9375 10.2812C12.9375 10.0077 12.8288 9.74544 12.6355 9.55205C12.4421 9.35865 12.1798 9.25 11.9062 9.25C11.6327 9.25 11.3704 9.35865 11.177 9.55205C10.9836 9.74544 10.875 10.0077 10.875 10.2812C10.875 10.5548 10.9836 10.8171 11.177 11.0105C11.3704 11.2038 11.6327 11.3125 11.9062 11.3125ZM12.9375 14.4062C12.9375 14.6798 12.8288 14.9421 12.6355 15.1355C12.4421 15.3288 12.1798 15.4375 11.9062 15.4375C11.6327 15.4375 11.3704 15.3288 11.177 15.1355C10.9836 14.9421 10.875 14.6798 10.875 14.4062C10.875 14.1327 10.9836 13.8704 11.177 13.677C11.3704 13.4837 11.6327 13.375 11.9062 13.375C12.1798 13.375 12.4421 13.4837 12.6355 13.677C12.8288 13.8704 12.9375 14.1327 12.9375 14.4062ZM16.0312 15.4375C16.1667 15.4375 16.3008 15.4108 16.4259 15.359C16.551 15.3072 16.6647 15.2312 16.7605 15.1355C16.8562 15.0397 16.9322 14.926 16.984 14.8009C17.0358 14.6758 17.0625 14.5417 17.0625 14.4062C17.0625 14.2708 17.0358 14.1367 16.984 14.0116C16.9322 13.8865 16.8562 13.7728 16.7605 13.677C16.6647 13.5813 16.551 13.5053 16.4259 13.4535C16.3008 13.4017 16.1667 13.375 16.0312 13.375C15.7577 13.375 15.4954 13.4837 15.302 13.677C15.1086 13.8704 15 14.1327 15 14.4062C15 14.6798 15.1086 14.9421 15.302 15.1355C15.4954 15.3288 15.7577 15.4375 16.0312 15.4375ZM4.6875 23C4.50516 23 4.3303 22.9276 4.20136 22.7986C4.07243 22.6697 4 22.4948 4 22.3125V3.0625C4 2.51549 4.2173 1.99089 4.60409 1.60409C4.99089 1.2173 5.51549 1 6.0625 1H14.3125C14.8595 1 15.3841 1.2173 15.7709 1.60409C16.1577 1.99089 16.375 2.51549 16.375 3.0625V9.25H18.4375C18.9845 9.25 19.5091 9.4673 19.8959 9.85409C20.2827 10.2409 20.5 10.7655 20.5 11.3125V22.3125C20.5 22.4948 20.4276 22.6697 20.2986 22.7986C20.1697 22.9276 19.9948 23 19.8125 23H4.6875ZM5.375 3.0625V21.625H8.125V18.1875C8.125 18.0052 8.19743 17.8303 8.32636 17.7014C8.4553 17.5724 8.63016 17.5 8.8125 17.5H15.6875C15.8698 17.5 16.0447 17.5724 16.1736 17.7014C16.3026 17.8303 16.375 18.0052 16.375 18.1875V21.625H19.125V11.3125C19.125 11.1302 19.0526 10.9553 18.9236 10.8264C18.7947 10.6974 18.6198 10.625 18.4375 10.625H15.6875C15.5052 10.625 15.3303 10.5526 15.2014 10.4236C15.0724 10.2947 15 10.1198 15 9.9375V3.0625C15 2.88016 14.9276 2.7053 14.7986 2.57636C14.6697 2.44743 14.4948 2.375 14.3125 2.375H6.0625C5.88016 2.375 5.7053 2.44743 5.57636 2.57636C5.44743 2.7053 5.375 2.88016 5.375 3.0625ZM15 18.875H12.9375V21.625H15V18.875ZM11.5625 18.875H9.5V21.625H11.5625V18.875Z" fill="white"/>
</svg>
