<svg width="16" height="16" viewBox="0 0 16 16" fill="none" xmlns="http://www.w3.org/2000/svg">
<path d="M14.066 4.7666C13.8993 4.59994 13.702 4.5166 13.474 4.5166C13.246 4.5166 13.0489 4.59994 12.8827 4.7666L7.99935 9.64994L3.09935 4.74993C2.94379 4.59438 2.74935 4.5166 2.51602 4.5166C2.28268 4.5166 2.08268 4.59993 1.91602 4.7666C1.74935 4.93327 1.66602 5.1306 1.66602 5.3586C1.66602 5.5866 1.74935 5.78371 1.91602 5.94993L7.53268 11.5499C7.59935 11.6166 7.67157 11.6639 7.74935 11.6919C7.82713 11.7199 7.91046 11.7337 7.99935 11.7333C8.08824 11.7333 8.17157 11.7193 8.24935 11.6913C8.32713 11.6633 8.39935 11.6162 8.46602 11.5499L14.0827 5.93327C14.2382 5.77771 14.316 5.58594 14.316 5.35794C14.316 5.12994 14.2327 4.93282 14.066 4.7666Z" fill="#9B8247"/>
</svg>
