<svg width="215" height="40" viewBox="0 0 215 40" fill="none" xmlns="http://www.w3.org/2000/svg">
<g clip-path="url(#clip0_839_3)">
<path d="M63.2027 26.6941C62.2713 26.6941 61.403 26.5442 60.5984 26.2444C59.805 25.9331 59.1151 25.4948 58.5287 24.9298C57.9423 24.3648 57.482 23.7017 57.1489 22.9406C56.8266 22.1795 56.666 21.3435 56.666 20.4325C56.666 19.5215 56.8266 18.6855 57.1489 17.9244C57.482 17.1633 57.9423 16.5002 58.5287 15.9352C59.1264 15.3702 59.8222 14.9378 60.6156 14.6379C61.409 14.3266 62.2767 14.1709 63.2199 14.1709C64.2661 14.1709 65.2087 14.3554 66.0484 14.7244C66.8989 15.0819 67.612 15.6124 68.1871 16.3158L66.3934 17.9763C65.9794 17.5035 65.5192 17.1518 65.0136 16.9212C64.5075 16.679 63.9556 16.5579 63.3579 16.5579C62.7941 16.5579 62.2767 16.6502 61.8057 16.8347C61.3341 17.0192 60.926 17.2844 60.5811 17.6304C60.2362 17.9763 59.9656 18.3857 59.7705 18.8585C59.5862 19.3313 59.4945 19.8559 59.4945 20.4325C59.4945 21.0091 59.5862 21.5338 59.7705 22.0066C59.9656 22.4794 60.2362 22.8887 60.5811 23.2347C60.926 23.5806 61.3341 23.8459 61.8057 24.0304C62.2767 24.2148 62.7941 24.3071 63.3579 24.3071C63.9556 24.3071 64.5075 24.1918 65.0136 23.9612C65.5192 23.719 65.9794 23.3558 66.3934 22.8714L68.1871 24.532C67.612 25.2354 66.8989 25.7716 66.0484 26.1406C65.2087 26.5097 64.2601 26.6941 63.2027 26.6941ZM75.6853 26.6941C74.7307 26.6941 73.8452 26.5385 73.0292 26.2271C72.224 25.9158 71.5228 25.4775 70.9251 24.9125C70.3387 24.3475 69.8784 23.6844 69.5453 22.9233C69.223 22.1623 69.0624 21.332 69.0624 20.4325C69.0624 19.5331 69.223 18.7028 69.5453 17.9417C69.8784 17.1806 70.344 16.5175 70.9423 15.9525C71.54 15.3875 72.2412 14.9493 73.0465 14.6379C73.8511 14.3266 74.7248 14.1709 75.668 14.1709C76.622 14.1709 77.4962 14.3266 78.2896 14.6379C79.0943 14.9493 79.7901 15.3875 80.3765 15.9525C80.9742 16.5175 81.4399 17.1806 81.7735 17.9417C82.1066 18.6913 82.2736 19.5215 82.2736 20.4325C82.2736 21.332 82.1066 22.168 81.7735 22.9406C81.4399 23.7017 80.9742 24.3648 80.3765 24.9298C79.7901 25.4833 79.0943 25.9158 78.2896 26.2271C77.4962 26.5385 76.6279 26.6941 75.6853 26.6941ZM75.668 24.3071C76.2081 24.3071 76.7028 24.2148 77.1513 24.0304C77.611 23.8459 78.0136 23.5806 78.3586 23.2347C78.7035 22.8887 78.9676 22.4794 79.1519 22.0066C79.347 21.5338 79.4451 21.0091 79.4451 20.4325C79.4451 19.8559 79.347 19.3313 79.1519 18.8585C78.9676 18.3857 78.7035 17.9763 78.3586 17.6304C78.0249 17.2844 77.6282 17.0192 77.1685 16.8347C76.7082 16.6502 76.2081 16.5579 75.668 16.5579C75.1274 16.5579 74.6272 16.6502 74.1675 16.8347C73.7191 17.0192 73.3224 17.2844 72.9775 17.6304C72.6325 17.9763 72.362 18.3857 72.1668 18.8585C71.9825 19.3313 71.8909 19.8559 71.8909 20.4325C71.8909 20.9975 71.9825 21.5223 72.1668 22.0066C72.362 22.4794 72.6266 22.8887 72.9602 23.2347C73.3052 23.5806 73.7072 23.8459 74.1675 24.0304C74.6272 24.2148 75.1274 24.3071 75.668 24.3071ZM84.3735 26.4866V14.3785H86.6846L93.8076 23.0963H92.6866V14.3785H95.4461V26.4866H93.1523L86.012 17.7687H87.133V26.4866H84.3735ZM98.3021 26.4866V14.3785H103.787C105.097 14.3785 106.253 14.6321 107.253 15.1395C108.254 15.6354 109.036 16.3331 109.599 17.2325C110.163 18.132 110.444 19.1986 110.444 20.4325C110.444 21.6548 110.163 22.7215 109.599 23.6325C109.036 24.532 108.254 25.2354 107.253 25.7428C106.253 26.2386 105.097 26.4866 103.787 26.4866H98.3021ZM101.096 24.186H103.649C104.454 24.186 105.149 24.0361 105.736 23.7363C106.334 23.425 106.794 22.9867 107.115 22.4217C107.449 21.8567 107.616 21.1936 107.616 20.4325C107.616 19.6599 107.449 18.9968 107.115 18.4433C106.794 17.8783 106.334 17.4459 105.736 17.146C105.149 16.8347 104.454 16.679 103.649 16.679H101.096V24.186ZM118.415 26.6941C117.461 26.6941 116.576 26.5385 115.759 26.2271C114.955 25.9158 114.253 25.4775 113.655 24.9125C113.069 24.3475 112.609 23.6844 112.276 22.9233C111.954 22.1623 111.793 21.332 111.793 20.4325C111.793 19.5331 111.954 18.7028 112.276 17.9417C112.609 17.1806 113.075 16.5175 113.673 15.9525C114.27 15.3875 114.972 14.9493 115.777 14.6379C116.581 14.3266 117.456 14.1709 118.398 14.1709C119.353 14.1709 120.226 14.3266 121.02 14.6379C121.824 14.9493 122.52 15.3875 123.107 15.9525C123.704 16.5175 124.17 17.1806 124.504 17.9417C124.837 18.6913 125.004 19.5215 125.004 20.4325C125.004 21.332 124.837 22.168 124.504 22.9406C124.17 23.7017 123.704 24.3648 123.107 24.9298C122.52 25.4833 121.824 25.9158 121.02 26.2271C120.226 26.5385 119.358 26.6941 118.415 26.6941ZM118.398 24.3071C118.939 24.3071 119.433 24.2148 119.881 24.0304C120.341 23.8459 120.744 23.5806 121.089 23.2347C121.434 22.8887 121.698 22.4794 121.882 22.0066C122.078 21.5338 122.175 21.0091 122.175 20.4325C122.175 19.8559 122.078 19.3313 121.882 18.8585C121.698 18.3857 121.434 17.9763 121.089 17.6304C120.755 17.2844 120.358 17.0192 119.899 16.8347C119.439 16.6502 118.939 16.5579 118.398 16.5579C117.858 16.5579 117.357 16.6502 116.898 16.8347C116.449 17.0192 116.053 17.2844 115.708 17.6304C115.363 17.9763 115.093 18.3857 114.897 18.8585C114.713 19.3313 114.621 19.8559 114.621 20.4325C114.621 20.9975 114.713 21.5223 114.897 22.0066C115.093 22.4794 115.357 22.8887 115.69 23.2347C116.035 23.5806 116.438 23.8459 116.898 24.0304C117.357 24.2148 117.858 24.3071 118.398 24.3071ZM131.071 26.6941C130.105 26.6941 129.179 26.5673 128.294 26.3136C127.408 26.0484 126.696 25.7082 126.155 25.2931L127.104 23.1828C127.621 23.5518 128.231 23.8574 128.932 24.0995C129.645 24.3302 130.363 24.4455 131.088 24.4455C131.64 24.4455 132.082 24.3936 132.416 24.2898C132.761 24.1745 133.014 24.0188 133.175 23.8228C133.336 23.6267 133.416 23.4019 133.416 23.1482C133.416 22.8253 133.289 22.5716 133.037 22.3871C132.784 22.1911 132.45 22.0354 132.036 21.9201C131.622 21.7932 131.163 21.6779 130.657 21.5741C130.162 21.4588 129.662 21.3205 129.156 21.159C128.662 20.9975 128.208 20.79 127.794 20.5363C127.38 20.2826 127.041 19.9482 126.776 19.5331C126.523 19.1179 126.397 18.5875 126.397 17.9417C126.397 17.2498 126.58 16.6213 126.948 16.0563C127.328 15.4797 127.891 15.0243 128.639 14.6898C129.398 14.3439 130.346 14.1709 131.484 14.1709C132.243 14.1709 132.991 14.2632 133.727 14.4477C134.462 14.6206 135.112 14.8859 135.676 15.2433L134.813 17.3709C134.25 17.048 133.686 16.8116 133.123 16.6617C132.56 16.5002 132.008 16.4195 131.467 16.4195C130.927 16.4195 130.484 16.483 130.139 16.6098C129.794 16.7367 129.547 16.9039 129.398 17.1114C129.248 17.3075 129.173 17.5381 129.173 17.8033C129.173 18.1147 129.3 18.3684 129.553 18.5644C129.806 18.7489 130.139 18.8988 130.553 19.0141C130.967 19.1294 131.421 19.2448 131.916 19.3601C132.422 19.4754 132.922 19.608 133.416 19.7579C133.922 19.9078 134.382 20.1097 134.796 20.3633C135.21 20.617 135.543 20.9514 135.796 21.3666C136.061 21.7817 136.193 22.3064 136.193 22.9406C136.193 23.621 136.003 24.2437 135.624 24.8087C135.244 25.3738 134.675 25.8293 133.916 26.1752C133.169 26.5212 132.22 26.6941 131.071 26.6941ZM146.781 26.6941C145.896 26.6941 145.108 26.55 144.418 26.2617C143.728 25.9734 143.182 25.5813 142.78 25.0855C142.377 24.5897 142.176 24.0188 142.176 23.3731C142.176 22.7734 142.308 22.2372 142.573 21.7644C142.837 21.2801 143.257 20.8304 143.832 20.4152C144.406 19.9886 145.137 19.5734 146.022 19.1698C146.666 18.87 147.172 18.6048 147.54 18.3741C147.907 18.1435 148.166 17.9244 148.316 17.7168C148.465 17.4978 148.54 17.2786 148.54 17.0595C148.54 16.7597 148.437 16.5175 148.23 16.3331C148.034 16.1486 147.741 16.0563 147.35 16.0563C146.936 16.0563 146.614 16.1601 146.384 16.3677C146.154 16.5752 146.039 16.8405 146.039 17.1633C146.039 17.3363 146.074 17.5093 146.143 17.6823C146.212 17.8437 146.344 18.034 146.54 18.2531C146.735 18.4606 147.011 18.7316 147.367 19.066L153.732 24.9817L152.266 26.6941L145.246 20.1558C144.843 19.7867 144.522 19.4408 144.28 19.1179C144.039 18.7951 143.86 18.4779 143.746 18.1666C143.642 17.8552 143.59 17.5324 143.59 17.1979C143.59 16.6098 143.746 16.0909 144.056 15.6412C144.366 15.1914 144.803 14.8455 145.367 14.6033C145.93 14.3497 146.591 14.2228 147.35 14.2228C148.051 14.2228 148.655 14.3381 149.161 14.5687C149.679 14.7878 150.081 15.105 150.368 15.5201C150.667 15.9352 150.817 16.4311 150.817 17.0077C150.817 17.5151 150.69 17.9821 150.437 18.4087C150.184 18.8239 149.787 19.2159 149.247 19.585C148.718 19.954 148.023 20.3287 147.16 20.7093C146.574 20.9745 146.108 21.234 145.763 21.4877C145.43 21.7298 145.188 21.9778 145.039 22.2314C144.889 22.4851 144.815 22.7677 144.815 23.079C144.815 23.3673 144.901 23.6267 145.074 23.8574C145.257 24.088 145.51 24.2667 145.832 24.3936C146.154 24.5205 146.534 24.5839 146.971 24.5839C147.672 24.5839 148.316 24.4224 148.902 24.0995C149.489 23.7651 149.983 23.2751 150.386 22.6293C150.8 21.972 151.093 21.1763 151.265 20.2423L153.421 20.9168C153.18 22.0931 152.749 23.1136 152.128 23.9785C151.507 24.8433 150.742 25.5121 149.834 25.985C148.925 26.4578 147.907 26.6941 146.781 26.6941ZM168.697 14.3785H171.491V26.4866H168.697V14.3785ZM163.213 26.4866H160.419V14.3785H163.213V26.4866ZM168.904 21.5223H163.006V19.1525H168.904V21.5223ZM180.212 26.6941C179.257 26.6941 178.372 26.5385 177.556 26.2271C176.751 25.9158 176.049 25.4775 175.452 24.9125C174.865 24.3475 174.405 23.6844 174.072 22.9233C173.75 22.1623 173.589 21.332 173.589 20.4325C173.589 19.5331 173.75 18.7028 174.072 17.9417C174.405 17.1806 174.871 16.5175 175.469 15.9525C176.067 15.3875 176.768 14.9493 177.573 14.6379C178.378 14.3266 179.252 14.1709 180.195 14.1709C181.149 14.1709 182.023 14.3266 182.816 14.6379C183.621 14.9493 184.317 15.3875 184.903 15.9525C185.501 16.5175 185.966 17.1806 186.3 17.9417C186.634 18.6913 186.8 19.5215 186.8 20.4325C186.8 21.332 186.634 22.168 186.3 22.9406C185.966 23.7017 185.501 24.3648 184.903 24.9298C184.317 25.4833 183.621 25.9158 182.816 26.2271C182.023 26.5385 181.155 26.6941 180.212 26.6941ZM180.195 24.3071C180.735 24.3071 181.229 24.2148 181.678 24.0304C182.138 23.8459 182.54 23.5806 182.885 23.2347C183.23 22.8887 183.495 22.4794 183.678 22.0066C183.874 21.5338 183.972 21.0091 183.972 20.4325C183.972 19.8559 183.874 19.3313 183.678 18.8585C183.495 18.3857 183.23 17.9763 182.885 17.6304C182.552 17.2844 182.155 17.0192 181.695 16.8347C181.235 16.6502 180.735 16.5579 180.195 16.5579C179.654 16.5579 179.154 16.6502 178.694 16.8347C178.246 17.0192 177.849 17.2844 177.504 17.6304C177.159 17.9763 176.889 18.3857 176.693 18.8585C176.51 19.3313 176.417 19.8559 176.417 20.4325C176.417 20.9975 176.51 21.5223 176.693 22.0066C176.889 22.4794 177.153 22.8887 177.487 23.2347C177.832 23.5806 178.234 23.8459 178.694 24.0304C179.154 24.2148 179.654 24.3071 180.195 24.3071ZM188.9 26.4866V14.3785H191.211L196.351 22.9233H195.126L200.18 14.3785H202.474L202.508 26.4866H199.886L199.869 18.4087H200.352L196.316 25.2066H195.057L190.935 18.4087H191.522V26.4866H188.9ZM207.942 19.2563H213.755V21.4358H207.942V19.2563ZM208.149 24.2379H214.721V26.4866H205.373V14.3785H214.496V16.6271H208.149V24.2379Z" fill="white"/>
<path d="M102.5 38.5534L105.65 31.5534H106.93L110.09 38.5534H108.73L106.02 32.2434H106.54L103.84 38.5534H102.5ZM103.95 36.9334L104.3 35.9134H108.08L108.43 36.9334H103.95Z" fill="white"/>
<path d="M113.071 38.6234C112.558 38.6234 112.095 38.51 111.681 38.2834C111.275 38.05 110.955 37.73 110.721 37.3234C110.488 36.9167 110.371 36.4367 110.371 35.8834C110.371 35.33 110.488 34.85 110.721 34.4434C110.955 34.0367 111.275 33.72 111.681 33.4934C112.095 33.2667 112.558 33.1534 113.071 33.1534C113.518 33.1534 113.918 33.2534 114.271 33.4534C114.625 33.6467 114.905 33.9434 115.111 34.3434C115.318 34.7434 115.421 35.2567 115.421 35.8834C115.421 36.5034 115.321 37.0167 115.121 37.4234C114.921 37.8234 114.645 38.1234 114.291 38.3234C113.938 38.5234 113.531 38.6234 113.071 38.6234ZM113.221 37.5534C113.521 37.5534 113.788 37.4867 114.021 37.3534C114.261 37.22 114.451 37.0267 114.591 36.7734C114.738 36.52 114.811 36.2234 114.811 35.8834C114.811 35.5367 114.738 35.24 114.591 34.9934C114.451 34.74 114.261 34.5467 114.021 34.4134C113.788 34.28 113.521 34.2134 113.221 34.2134C112.921 34.2134 112.651 34.28 112.411 34.4134C112.178 34.5467 111.988 34.74 111.841 34.9934C111.701 35.24 111.631 35.5367 111.631 35.8834C111.631 36.2234 111.701 36.52 111.841 36.7734C111.988 37.0267 112.178 37.22 112.411 37.3534C112.651 37.4867 112.921 37.5534 113.221 37.5534ZM114.841 38.5534V37.2934L114.891 35.8734L114.791 34.4534V31.1334H116.031V38.5534H114.841Z" fill="white"/>
<path d="M124.417 33.1534C124.843 33.1534 125.22 33.2367 125.547 33.4034C125.88 33.57 126.14 33.8267 126.327 34.1734C126.513 34.5134 126.607 34.9534 126.607 35.4934V38.5534H125.357V35.6534C125.357 35.18 125.253 34.8267 125.047 34.5934C124.84 34.36 124.543 34.2434 124.157 34.2434C123.883 34.2434 123.64 34.3034 123.427 34.4234C123.22 34.5434 123.057 34.72 122.937 34.9534C122.823 35.1867 122.767 35.4834 122.767 35.8434V38.5534H121.517V35.6534C121.517 35.18 121.413 34.8267 121.207 34.5934C121 34.36 120.703 34.2434 120.317 34.2434C120.043 34.2434 119.8 34.3034 119.587 34.4234C119.38 34.5434 119.217 34.72 119.097 34.9534C118.983 35.1867 118.927 35.4834 118.927 35.8434V38.5534H117.677V33.2134H118.867V34.6334L118.657 34.2134C118.837 33.8667 119.097 33.6034 119.437 33.4234C119.783 33.2434 120.177 33.1534 120.617 33.1534C121.117 33.1534 121.55 33.2767 121.917 33.5234C122.29 33.77 122.537 34.1434 122.657 34.6434L122.167 34.4734C122.34 34.0734 122.627 33.7534 123.027 33.5134C123.427 33.2734 123.89 33.1534 124.417 33.1534Z" fill="white"/>
<path d="M128.204 38.5534V33.2134H129.454V38.5534H128.204ZM128.834 32.3334C128.601 32.3334 128.407 32.26 128.254 32.1134C128.107 31.9667 128.034 31.79 128.034 31.5834C128.034 31.37 128.107 31.1934 128.254 31.0534C128.407 30.9067 128.601 30.8334 128.834 30.8334C129.067 30.8334 129.257 30.9034 129.404 31.0434C129.557 31.1767 129.634 31.3467 129.634 31.5534C129.634 31.7734 129.561 31.96 129.414 32.1134C129.267 32.26 129.074 32.3334 128.834 32.3334Z" fill="white"/>
<path d="M134.125 33.1534C134.551 33.1534 134.931 33.2367 135.265 33.4034C135.605 33.57 135.871 33.8267 136.065 34.1734C136.258 34.5134 136.355 34.9534 136.355 35.4934V38.5534H135.105V35.6534C135.105 35.18 134.991 34.8267 134.765 34.5934C134.545 34.36 134.235 34.2434 133.835 34.2434C133.541 34.2434 133.281 34.3034 133.055 34.4234C132.828 34.5434 132.651 34.7234 132.525 34.9634C132.405 35.1967 132.345 35.4934 132.345 35.8534V38.5534H131.095V33.2134H132.285V34.6534L132.075 34.2134C132.261 33.8734 132.531 33.6134 132.885 33.4334C133.245 33.2467 133.658 33.1534 134.125 33.1534Z" fill="white"/>
<path d="M140.824 38.5534V31.5534H143.704C144.324 31.5534 144.854 31.6534 145.294 31.8534C145.741 32.0534 146.084 32.34 146.324 32.7134C146.564 33.0867 146.684 33.53 146.684 34.0434C146.684 34.5567 146.564 35 146.324 35.3734C146.084 35.7467 145.741 36.0334 145.294 36.2334C144.854 36.4334 144.324 36.5334 143.704 36.5334H141.544L142.124 35.9234V38.5534H140.824ZM142.124 36.0634L141.544 35.4334H143.644C144.217 35.4334 144.647 35.3134 144.934 35.0734C145.227 34.8267 145.374 34.4834 145.374 34.0434C145.374 33.5967 145.227 33.2534 144.934 33.0134C144.647 32.7734 144.217 32.6534 143.644 32.6534H141.544L142.124 32.0134V36.0634Z" fill="white"/>
<path d="M151.103 38.5534V37.4734L151.033 37.2434V35.3534C151.033 34.9867 150.923 34.7034 150.703 34.5034C150.483 34.2967 150.15 34.1934 149.703 34.1934C149.403 34.1934 149.107 34.24 148.813 34.3334C148.527 34.4267 148.283 34.5567 148.083 34.7234L147.593 33.8134C147.88 33.5934 148.22 33.43 148.613 33.3234C149.013 33.21 149.427 33.1534 149.853 33.1534C150.627 33.1534 151.223 33.34 151.643 33.7134C152.07 34.08 152.283 34.65 152.283 35.4234V38.5534H151.103ZM149.423 38.6234C149.023 38.6234 148.673 38.5567 148.373 38.4234C148.073 38.2834 147.84 38.0934 147.673 37.8534C147.513 37.6067 147.433 37.33 147.433 37.0234C147.433 36.7234 147.503 36.4534 147.643 36.2134C147.79 35.9734 148.027 35.7834 148.353 35.6434C148.68 35.5034 149.113 35.4334 149.653 35.4334H151.203V36.2634H149.743C149.317 36.2634 149.03 36.3334 148.883 36.4734C148.737 36.6067 148.663 36.7734 148.663 36.9734C148.663 37.2 148.753 37.38 148.933 37.5134C149.113 37.6467 149.363 37.7134 149.683 37.7134C149.99 37.7134 150.263 37.6434 150.503 37.5034C150.75 37.3634 150.927 37.1567 151.033 36.8834L151.243 37.6334C151.123 37.9467 150.907 38.19 150.593 38.3634C150.287 38.5367 149.897 38.6234 149.423 38.6234Z" fill="white"/>
<path d="M156.918 33.1534C157.344 33.1534 157.724 33.2367 158.058 33.4034C158.398 33.57 158.664 33.8267 158.858 34.1734C159.051 34.5134 159.148 34.9534 159.148 35.4934V38.5534H157.898V35.6534C157.898 35.18 157.784 34.8267 157.558 34.5934C157.338 34.36 157.028 34.2434 156.628 34.2434C156.334 34.2434 156.074 34.3034 155.848 34.4234C155.621 34.5434 155.444 34.7234 155.318 34.9634C155.198 35.1967 155.138 35.4934 155.138 35.8534V38.5534H153.888V33.2134H155.078V34.6534L154.868 34.2134C155.054 33.8734 155.324 33.6134 155.678 33.4334C156.038 33.2467 156.451 33.1534 156.918 33.1534Z" fill="white"/>
<path d="M163.253 38.6234C162.66 38.6234 162.14 38.5067 161.693 38.2734C161.253 38.0334 160.91 37.7067 160.663 37.2934C160.423 36.88 160.303 36.41 160.303 35.8834C160.303 35.35 160.42 34.88 160.653 34.4734C160.893 34.06 161.22 33.7367 161.633 33.5034C162.053 33.27 162.53 33.1534 163.063 33.1534C163.583 33.1534 164.046 33.2667 164.453 33.4934C164.86 33.72 165.18 34.04 165.413 34.4534C165.646 34.8667 165.763 35.3534 165.763 35.9134C165.763 35.9667 165.76 36.0267 165.753 36.0934C165.753 36.16 165.75 36.2234 165.743 36.2834H161.293V35.4534H165.083L164.593 35.7134C164.6 35.4067 164.536 35.1367 164.403 34.9034C164.27 34.67 164.086 34.4867 163.853 34.3534C163.626 34.22 163.363 34.1534 163.063 34.1534C162.756 34.1534 162.486 34.22 162.253 34.3534C162.026 34.4867 161.846 34.6734 161.713 34.9134C161.586 35.1467 161.523 35.4234 161.523 35.7434V35.9434C161.523 36.2634 161.596 36.5467 161.743 36.7934C161.89 37.04 162.096 37.23 162.363 37.3634C162.63 37.4967 162.936 37.5634 163.283 37.5634C163.583 37.5634 163.853 37.5167 164.093 37.4234C164.333 37.33 164.546 37.1834 164.733 36.9834L165.403 37.7534C165.163 38.0334 164.86 38.25 164.493 38.4034C164.133 38.55 163.72 38.6234 163.253 38.6234Z" fill="white"/>
<path d="M166.964 38.5534V31.1334H168.214V38.5534H166.964Z" fill="white"/>
<mask id="mask0_839_3" style="mask-type:luminance" maskUnits="userSpaceOnUse" x="0" y="0" width="48" height="40">
<path d="M47.4295 0H0V40H47.4295V0Z" fill="white"/>
</mask>
<g mask="url(#mask0_839_3)">
<path d="M47.4295 24.2724L40.0728 23.8198L40.3248 19.2861L31.5094 24.1382L36.3566 9.25751L29.9961 10.8395L23.7141 0L17.4334 10.8395L11.0729 9.25751L15.9215 24.1382L7.10473 19.2861L7.3567 23.8198L0 24.2724L5.38969 31.2431L1.65871 34.5102L12.2536 40V34.0344H14.9338V28.4833H15.5836V27.3569H19.6442V28.4833H20.3752V36.2871H22.0807L22.4056 27.196H21.5123V25.9893H21.1874V24.3802H21.7558V23.4953H22.4056V22.5299H22.7305V17.3005L22.4868 17.1396V16.7373L22.8117 16.5765L23.1365 7.88773L23.4614 16.5765L23.7863 16.7373V17.1396L23.5426 17.3005V22.5299H23.9487V23.4953H24.5984V24.3802H25.0857V25.9893H24.6796V27.196H23.8302L24.4359 40H25.0857V35.2412H26.7912V34.2758H29.1464V35.2412H30.9332V40H32.395V34.9193H33.0447V33.6321H35.1563L38.1613 32.8276V40L45.7723 34.5102L42.0399 31.2431L47.4295 24.2724Z" fill="white"/>
</g>
</g>
<defs>
<clipPath id="clip0_839_3">
<rect width="215" height="40" fill="white"/>
</clipPath>
</defs>
</svg>
