<svg width="24" height="24" viewBox="0 0 24 24" fill="none" xmlns="http://www.w3.org/2000/svg">
<path d="M12 1C9.82441 1 7.69767 1.64514 5.88873 2.85383C4.07979 4.06253 2.66989 5.78049 1.83733 7.79048C1.00477 9.80047 0.78693 12.0122 1.21137 14.146C1.6358 16.2798 2.68345 18.2398 4.22183 19.7782C5.76021 21.3165 7.72022 22.3642 9.85401 22.7886C11.9878 23.2131 14.1995 22.9952 16.2095 22.1627C18.2195 21.3301 19.9375 19.9202 21.1462 18.1113C22.3549 16.3023 23 14.1756 23 12C22.9966 9.08367 21.8366 6.28777 19.7744 4.22561C17.7122 2.16345 14.9163 1.00342 12 1ZM5.9004 19.549C6.53321 18.4968 7.42748 17.6261 8.49629 17.0217C9.56511 16.4172 10.7721 16.0996 12 16.0996C13.2279 16.0996 14.4349 16.4172 15.5037 17.0217C16.5725 17.6261 17.4668 18.4968 18.0996 19.549C16.3745 20.9479 14.221 21.7113 12 21.7113C9.779 21.7113 7.62549 20.9479 5.9004 19.549ZM8.33334 11.1373C8.33334 10.4121 8.54838 9.70314 8.95128 9.10016C9.35418 8.49718 9.92684 8.02722 10.5968 7.7497C11.2668 7.47217 12.0041 7.39956 12.7153 7.54104C13.4266 7.68252 14.0799 8.03174 14.5927 8.54453C15.1055 9.05732 15.4547 9.71066 15.5962 10.4219C15.7377 11.1332 15.6651 11.8704 15.3876 12.5404C15.11 13.2104 14.6401 13.7831 14.0371 14.186C13.4341 14.5889 12.7252 14.8039 12 14.8039C11.0275 14.8039 10.0949 14.4176 9.40728 13.73C8.71964 13.0423 8.33334 12.1097 8.33334 11.1373ZM19.0648 18.6474C18.0481 17.0666 16.5285 15.8745 14.7511 15.2633C15.6374 14.673 16.3102 13.8132 16.67 12.8109C17.0299 11.8087 17.0577 10.7173 16.7493 9.69799C16.4409 8.67873 15.8128 7.78576 14.9577 7.15109C14.1026 6.51643 13.066 6.17376 12.0011 6.17376C10.9362 6.17376 9.89957 6.51643 9.04448 7.15109C8.18939 7.78576 7.56122 8.67873 7.25285 9.69799C6.94448 10.7173 6.97228 11.8087 7.33213 12.8109C7.69198 13.8132 8.36479 14.673 9.25108 15.2633C7.47368 15.8745 5.95403 17.0666 4.93736 18.6474C3.63766 17.2682 2.77017 15.5387 2.44191 13.6722C2.11365 11.8057 2.33899 9.884 3.09012 8.1441C3.84125 6.4042 5.08531 4.92225 6.66881 3.8811C8.25231 2.83995 10.106 2.28515 12.0011 2.28515C13.8962 2.28515 15.7499 2.83995 17.3334 3.8811C18.9169 4.92225 20.1609 6.4042 20.912 8.1441C21.6632 9.884 21.8885 11.8057 21.5603 13.6722C21.232 15.5387 20.3645 17.2682 19.0648 18.6474Z" fill="white"/>
</svg>
